Coordinates
version=1
nRows=22
nColumns=24
inDegrees=yes

Units are S.I. units (second, meters, Newtons, ...)
Angles are in degrees.

endheader
time	pelvis_tilt	pelvis_list	pelvis_rotation	pelvis_tx	pelvis_ty	pelvis_tz	hip_flexion_r	hip_adduction_r	hip_rotation_r	knee_angle_r	ankle_angle_r	subtalar_angle_r	mtp_angle_r	hip_flexion_l	hip_adduction_l	hip_rotation_l	knee_angle_l	ankle_angle_l	subtalar_angle_l	mtp_angle_l	lumbar_extension	lumbar_bending	lumbar_rotation
      3.99000000	    -10.17210017	      0.50451444	      1.69924688	     -1.86322172	     -0.02270923	     -0.67470180	     32.91980310	     -2.16410795	    -12.43403802	    -12.63832793	     -2.98970738	     -2.72095382	     11.11427798	     -4.12999257	      2.75422060	    -13.36176871	    -13.18660765	     11.38100941	      4.82111841	      5.33164617	      7.38716845	      1.44918973	     -8.10964711
      3.99500000	    -10.20802675	      0.35514666	      1.71776800	     -1.85698918	     -0.02322326	     -0.67386551	     32.91449009	     -1.92800241	    -11.97306385	    -13.20268966	     -3.42008468	     -3.32816842	     10.29421401	     -4.16497620	      2.41811968	    -13.32484564	    -13.83133458	     11.15467568	      4.98725784	      5.13437414	      7.56696865	      1.63441839	     -8.21483579
      4.00000000	    -10.24326301	      0.17490423	      1.81348287	     -1.85073700	     -0.02367854	     -0.67314301	     32.89463362	     -1.73433233	    -11.76040496	    -13.73482433	     -3.95355828	     -3.87779330	      9.98393678	     -4.16492470	      2.04550238	    -13.17983900	    -14.52223459	     10.86669944	      5.08512025	      5.06001411	      7.75493746	      1.85017703	     -8.42778141
      4.00500000	    -10.29312085	     -0.01450425	      1.80878573	     -1.84446929	     -0.02408858	     -0.67217812	     32.88667159	     -1.46492257	    -11.47996481	    -14.21510453	     -4.62552822	     -4.59552877	      9.54915973	     -4.13369135	      1.65133344	    -13.14757417	    -15.24881175	     10.53780591	      5.20866798	      4.94872493	      7.95640017	      2.06535016	     -8.52208783
      4.01000000	    -10.34836340	     -0.21977485	      1.81254816	     -1.83821129	     -0.02442913	     -0.67126611	     32.87280539	     -1.19990012	    -11.23179593	    -14.66928374	     -5.31933332	     -5.34632493	      9.00855485	     -4.05753191	      1.23359600	    -13.15855807	    -16.03561703	     10.17776768	      5.35641488	      4.82155529	      8.15796870	      2.31997138	     -8.59678049
      4.01500000	    -10.38294264	     -0.39287913	      1.64868948	     -1.83201841	     -0.02475676	     -0.67000062	     32.87311207	     -0.85136061	    -10.75460451	    -15.18197837	     -5.87364956	     -6.14108971	      7.49003784	     -3.97897356	      0.82108188	    -13.47853149	    -16.89602594	      9.87023595	      5.68775940	      4.55548314	      8.31275126	      2.54531954	     -8.49263289
      4.02000000	    -10.43651626	     -0.60728753	      1.73335474	     -1.82578987	     -0.02489742	     -0.66913844	     32.82462164	     -0.64669661	    -10.71929031	    -15.59525335	     -6.46611601	     -6.86235022	      6.84310920	     -3.81568742	      0.38026133	    -13.38186778	    -17.79959158	      9.34085722	      5.70378311	      4.42611368	      8.51164546	      2.78125268	     -8.72176055
      4.02500000	    -10.50395423	     -0.85554368	      1.72009934	     -1.81952688	     -0.02499516	     -0.66820173	     32.78915861	     -0.36583438	    -10.65260744	    -15.99318122	     -7.06840801	     -7.58471964	      6.26536340	     -3.62165915	     -0.09612331	    -13.35972393	    -18.74309752	      8.80209248	      5.72913126	      4.30914146	      8.72387148	      3.08412143	     -8.80422332
      4.03000000	    -10.56353367	     -1.04854607	      1.56043022	     -1.81324811	     -0.02505925	     -0.66691957	     32.74960259	     -0.01292417	    -10.29397081	    -16.43256779	     -7.39365253	     -8.37383275	      4.57055578	     -3.40917958	     -0.55645186	    -13.68941995	    -19.76161338	      8.23127200	      5.95514896	      4.14796464	      8.91806626	      3.33512417	     -8.67095401
      4.03500000	    -10.59616080	     -1.26005093	      1.63419490	     -1.80702221	     -0.02493954	     -0.66606619	     32.62726618	      0.18345612	    -10.32962600	    -16.79235233	     -7.71713811	     -9.02395033	      4.12794109	     -3.14209190	     -1.00963425	    -13.58483224	    -20.84362853	      7.48139725	      5.84839031	      4.04505495	      9.08633092	      3.58003929	     -8.86589150
      4.04000000	    -10.64855601	     -1.41515770	      1.48865959	     -1.80077643	     -0.02484307	     -0.66479957	     32.54219184	      0.49717254	    -10.00163876	    -17.19495888	     -7.81873268	     -9.74037483	      2.72844864	     -2.84637714	     -1.44558302	    -13.89340372	    -21.97416792	      6.68711585	      5.93329886	      4.05553838	      9.26606786	      3.79004198	     -8.75361959
      4.04500000	    -10.64579916	     -1.60014952	      1.52054348	     -1.79453530	     -0.02452894	     -0.66391234	     32.33195908	      0.70727908	    -10.00296192	    -17.49287555	     -7.91127232	    -10.24651515	      2.43822127	     -2.53929780	     -1.88306715	    -13.83887775	    -23.15724594	      5.73018614	      5.74287598	      3.96140862	      9.39613617	      4.01897919	     -8.87677817
      4.05000000	    -10.66055669	     -1.74349938	      1.46523210	     -1.78835940	     -0.02420560	     -0.66284606	     32.13521297	      0.95771102	     -9.81877583	    -17.77359657	     -7.93457024	    -10.82381187	      2.04962927	     -2.17187353	     -2.29599662	    -13.92145042	    -24.40468039	      4.68357743	      5.56500842	      3.92971275	      9.52562574	      4.21345254	     -8.87928491
      4.05500000	    -10.69259846	     -1.85733646	      1.30967870	     -1.78220597	     -0.02389956	     -0.66152000	     31.96133526	      1.27346641	     -9.44503635	    -18.09682298	     -7.69128570	    -11.28450305	      0.76510250	     -1.75911087	     -2.72585522	    -14.24312992	    -25.68005656	      3.42853715	      5.44952460	      4.58105809	      9.66458586	      4.37568959	     -8.76224293
      4.06000000	    -10.63652851	     -1.98923909	      1.30439496	     -1.77613430	     -0.02337344	     -0.66055654	     31.62914113	      1.50365489	     -9.30460276	    -18.28981072	     -7.55782730	    -11.71240212	      0.63158517	     -1.36516383	     -3.12708608	    -14.20484915	    -27.02437492	      2.13291509	      5.08068760	      4.54789779	      9.70496923	      4.55140622	     -8.82663050
      4.06500000	    -10.62921518	     -2.09856028	      1.22851185	     -1.77015394	     -0.02289173	     -0.65947624	     31.34949332	      1.76971646	     -9.04117644	    -18.46873743	     -7.41938711	    -12.19421102	      0.40345104	     -0.87549155	     -3.51649319	    -14.24904032	    -28.42211205	      0.71835023	      4.67269185	      4.66633677	      9.77816069	      4.71194061	     -8.78827613
      4.07000000	    -10.59853108	     -2.26286278	      1.12517172	     -1.76408443	     -0.02235713	     -0.65844170	     31.01187792	      2.09269135	     -8.89052861	    -18.60027687	     -7.22719701	    -12.50439823	      0.28305781	     -0.39275679	     -3.96735261	    -14.32444860	    -29.84851042	     -0.73288319	      4.24013026	      4.61264436	      9.84370480	      4.94288525	     -8.68671738
      4.07500000	    -10.70854899	     -2.35017175	      0.96744878	     -1.75835798	     -0.02198917	     -0.65715436	     30.86163736	      2.41996926	     -8.38863554	    -18.78786617	     -6.98335746	    -12.98145201	     -0.83490523	      0.30249676	     -4.36411169	    -14.43188343	    -31.27393450	     -2.63387256	      3.66960121	      6.13426905	      9.99600875	      5.08289466	     -8.57067229
      4.08000000	    -10.60148211	     -2.54185220	      0.90937141	     -1.75250281	     -0.02137191	     -0.65622252	     30.40190346	      2.75640106	     -8.27750630	    -18.84132560	     -6.76331646	    -13.30953417	     -0.91772882	      0.79494009	     -4.82657837	    -14.35735967	    -32.77660617	     -4.17217976	      3.06657290	      5.95342580	      9.94521662	      5.33057077	     -8.50931415
      4.08500000	    -10.68950850	     -2.64482094	      0.79348383	     -1.74692992	     -0.02095892	     -0.65512725	     30.18735727	      3.05993001	     -7.87381944	    -18.94790257	     -6.51722458	    -13.68662128	     -1.72303343	      1.54811777	     -5.19843878	    -14.27964710	    -34.28136079	     -5.99928989	      2.37360859	      6.80553837	     10.05522666	      5.49304015	     -8.43094038
      4.09000000	    -10.59060484	     -2.82713812	      0.72991064	     -1.74140765	     -0.02037994	     -0.65422489	     29.73864972	      3.38847119	     -7.74522568	    -18.97555669	     -6.32682961	    -14.00387350	     -1.86880309	      2.13501666	     -5.62764404	    -14.11240750	    -35.85085988	     -7.49369124	      1.68815646	      6.70032276	      9.95192592	      5.73175846	     -8.34827401
      4.09500000	    -10.70352752	     -2.97181220	      0.60020712	     -1.73591951	     -0.02006038	     -0.65317992	     29.53105614	      3.71413315	     -7.49325287	    -19.04349269	     -5.99450314	    -14.17686005	     -2.54291941	      2.96348192	     -6.02741451	    -14.00192008	    -37.40080321	     -9.12828213	      0.95627591	      7.54207707	     10.07686770	      5.93230477	     -8.20521545
